# xmcd
#
# Track frame offsets: 
#        150
#        23955
#        39343
#        59765
#        81215
#        102873
#        120508
#        141330
#        162945
#        181328
#
# Disc length: 2676 seconds
#
# Revision: 3
# Processed by: cddbd v1.5.2PL0 Copyright (c) Steve Scherf et al.
# Submitted via: ExactAudioCopy v0.99pb3
#
DISCID=830a720a
DTITLE=Bobby 'Blue' Bland - Midnight Run
DYEAR=1989
DGENRE=Blues
TTITLE0=You've Got To Hurt Before You Heal
TTITLE1=Lay Love Aside
TTITLE2=Kiss Me To The Music
TTITLE3=Keep It A Secret
TTITLE4=Take Off Your Shoes
TTITLE5=Ain't No Sunshine When She's Gone
TTITLE6=If I Don't Get Involved
TTITLE7=I'm Not Ashamed To Sing The Blues
TTITLE8=Midnight Run
TTITLE9=Starting All Over Again
EXTD=
EXTT0=
EXTT1=
EXTT2=
EXTT3=
EXTT4=
EXTT5=
EXTT6=
EXTT7=
EXTT8=
EXTT9=
PLAYORDER=
